<svg viewBox="0 0 160 80" xmlns="http://www.w3.org/2000/svg">
  <!-- House/Cabinet background with exact color match -->
  <defs>
    <linearGradient id="houseGradient" x1="0%" y1="0%" x2="100%" y2="0%">
      <stop offset="0%" style="stop-color:#B5D5E3;stop-opacity:1" />
      <stop offset="100%" style="stop-color:#8EB6CA;stop-opacity:1" />
    </linearGradient>
    <linearGradient id="serverGradient" x1="0%" y1="0%" x2="100%" y2="0%">
      <stop offset="0%" style="stop-color:#29465E;stop-opacity:1" />
      <stop offset="100%" style="stop-color:#1D3649;stop-opacity:1" />
    </linearGradient>
    <linearGradient id="unitGradient" x1="0%" y1="0%" x2="100%" y2="0%">
      <stop offset="0%" style="stop-color:#2D5470;stop-opacity:1" />
      <stop offset="100%" style="stop-color:#204060;stop-opacity:1" />
    </linearGradient>
  </defs>

  <!-- House outline with no borders -->
  <path d="M48 20 L80 4 L112 20 L112 72 L48 72 Z" fill="url(#houseGradient)"/>
  
  <!-- Interior house shade divisions for 3D effect -->
  <path d="M80 4 L112 20 L112 72 L80 58 Z" fill="#8EB6CA" opacity="0.7"/>
  <path d="M48 20 L80 4 L80 58 L48 72 Z" fill="#B5D5E3" opacity="0.7"/>
  
  <!-- Light reflections on glass -->
  <path d="M52 24 L56 22" stroke="white" stroke-width="0.4" opacity="0.5"/>
  <path d="M104 32 L108 28" stroke="white" stroke-width="0.4" opacity="0.5"/>
  
  <!-- Server rack housing with precise shape -->
  <path d="M58 24 L102 24 L102 68 L58 68 Z" fill="url(#serverGradient)"/>
  
  <!-- Server unit 1 - exact proportions without borders -->
  <rect x="60" y="28" width="40" height="10" rx="2.4" fill="url(#unitGradient)"/>
  <circle cx="66" cy="33" r="2" fill="white"/>
  <circle cx="73.2" cy="33" r="2" fill="#8EB6CA"/>
  <rect x="82" y="30.6" width="14" height="1.2" rx="0.4" fill="#1D3649"/>
  <rect x="82" y="33.4" width="14" height="1.2" rx="0.4" fill="#1D3649"/>
  
  <!-- Server unit 2 - exact proportions without borders -->
  <rect x="60" y="42" width="40" height="10" rx="2.4" fill="url(#unitGradient)"/>
  <circle cx="66" cy="47" r="2" fill="white"/>
  <circle cx="73.2" cy="47" r="2" fill="#8EB6CA"/>
  <rect x="82" y="44.6" width="14" height="1.2" rx="0.4" fill="#1D3649"/>
  <rect x="82" y="47.4" width="14" height="1.2" rx="0.4" fill="#1D3649"/>
  
  <!-- Server unit 3 - exact proportions without borders -->
  <rect x="60" y="56" width="40" height="10" rx="2.4" fill="url(#unitGradient)"/>
  <circle cx="66" cy="61" r="2" fill="white"/>
  <circle cx="73.2" cy="61" r="2" fill="#8EB6CA"/>
  <rect x="82" y="58.6" width="14" height="1.2" rx="0.4" fill="#1D3649"/>
  <rect x="82" y="61.4" width="14" height="1.2" rx="0.4" fill="#1D3649"/>
  
  <!-- House front light reflection -->
  <path d="M52 38 L52 58" stroke="white" stroke-width="0.4" opacity="0.2"/>
  <path d="M108 30 L108 50" stroke="white" stroke-width="0.4" opacity="0.2"/>
  
  <!-- Subtle highlights on server units -->
  <path d="M60.8 28.8 L99.2 28.8" stroke="white" stroke-width="0.4" opacity="0.1"/>
  <path d="M60.8 42.8 L99.2 42.8" stroke="white" stroke-width="0.4" opacity="0.1"/>
  <path d="M60.8 56.8 L99.2 56.8" stroke="white" stroke-width="0.4" opacity="0.1"/>
</svg>
